%TF.GenerationSoftware,KiCad,Pcbnew,(5.1.9)-1*%
%TF.CreationDate,2021-03-23T14:53:16-04:00*%
%TF.ProjectId,TicTacToe,54696354-6163-4546-9f65-2e6b69636164,rev?*%
%TF.SameCoordinates,Original*%
%TF.FileFunction,Legend,Bot*%
%TF.FilePolarity,Positive*%
%FSLAX46Y46*%
G04 Gerber Fmt 4.6, Leading zero omitted, Abs format (unit mm)*
G04 Created by KiCad (PCBNEW (5.1.9)-1) date 2021-03-23 14:53:16*
%MOMM*%
%LPD*%
G01*
G04 APERTURE LIST*
%ADD10C,0.750000*%
%ADD11C,0.400000*%
%ADD12C,0.150000*%
%ADD13O,1.700000X1.700000*%
%ADD14R,1.700000X1.700000*%
%ADD15C,1.600000*%
%ADD16R,1.800000X1.800000*%
%ADD17C,1.800000*%
%ADD18C,2.200000*%
%ADD19R,1.600000X1.600000*%
%ADD20O,1.600000X1.600000*%
G04 APERTURE END LIST*
D10*
X62985714Y-53035714D02*
X60414285Y-53035714D01*
X61700000Y-57535714D02*
X61700000Y-53035714D01*
X61700000Y-65035714D02*
X61700000Y-60535714D01*
X60307142Y-72107142D02*
X60521428Y-72321428D01*
X61164285Y-72535714D01*
X61592857Y-72535714D01*
X62235714Y-72321428D01*
X62664285Y-71892857D01*
X62878571Y-71464285D01*
X63092857Y-70607142D01*
X63092857Y-69964285D01*
X62878571Y-69107142D01*
X62664285Y-68678571D01*
X62235714Y-68250000D01*
X61592857Y-68035714D01*
X61164285Y-68035714D01*
X60521428Y-68250000D01*
X60307142Y-68464285D01*
X62985714Y-83035714D02*
X60414285Y-83035714D01*
X61700000Y-87535714D02*
X61700000Y-83035714D01*
X62771428Y-93750000D02*
X60628571Y-93750000D01*
X63200000Y-95035714D02*
X61700000Y-90535714D01*
X60200000Y-95035714D01*
X60307142Y-102107142D02*
X60521428Y-102321428D01*
X61164285Y-102535714D01*
X61592857Y-102535714D01*
X62235714Y-102321428D01*
X62664285Y-101892857D01*
X62878571Y-101464285D01*
X63092857Y-100607142D01*
X63092857Y-99964285D01*
X62878571Y-99107142D01*
X62664285Y-98678571D01*
X62235714Y-98250000D01*
X61592857Y-98035714D01*
X61164285Y-98035714D01*
X60521428Y-98250000D01*
X60307142Y-98464285D01*
X62985714Y-113035714D02*
X60414285Y-113035714D01*
X61700000Y-117535714D02*
X61700000Y-113035714D01*
X62128571Y-120535714D02*
X61271428Y-120535714D01*
X60842857Y-120750000D01*
X60414285Y-121178571D01*
X60200000Y-122035714D01*
X60200000Y-123535714D01*
X60414285Y-124392857D01*
X60842857Y-124821428D01*
X61271428Y-125035714D01*
X62128571Y-125035714D01*
X62557142Y-124821428D01*
X62985714Y-124392857D01*
X63200000Y-123535714D01*
X63200000Y-122035714D01*
X62985714Y-121178571D01*
X62557142Y-120750000D01*
X62128571Y-120535714D01*
X62664285Y-130178571D02*
X61164285Y-130178571D01*
X60521428Y-132535714D02*
X62664285Y-132535714D01*
X62664285Y-128035714D01*
X60521428Y-128035714D01*
D11*
X143742857Y-135057142D02*
X144409523Y-135057142D01*
X144409523Y-136104761D02*
X144409523Y-134104761D01*
X143457142Y-134104761D01*
X142695238Y-136104761D02*
X142695238Y-134771428D01*
X142695238Y-134104761D02*
X142790476Y-134200000D01*
X142695238Y-134295238D01*
X142600000Y-134200000D01*
X142695238Y-134104761D01*
X142695238Y-134295238D01*
X141742857Y-134771428D02*
X141742857Y-136104761D01*
X141742857Y-134961904D02*
X141647619Y-134866666D01*
X141457142Y-134771428D01*
X141171428Y-134771428D01*
X140980952Y-134866666D01*
X140885714Y-135057142D01*
X140885714Y-136104761D01*
X139076190Y-136104761D02*
X139076190Y-134104761D01*
X139076190Y-136009523D02*
X139266666Y-136104761D01*
X139647619Y-136104761D01*
X139838095Y-136009523D01*
X139933333Y-135914285D01*
X140028571Y-135723809D01*
X140028571Y-135152380D01*
X139933333Y-134961904D01*
X139838095Y-134866666D01*
X139647619Y-134771428D01*
X139266666Y-134771428D01*
X139076190Y-134866666D01*
X136600000Y-136104761D02*
X136600000Y-134104761D01*
X136123809Y-134104761D01*
X135838095Y-134200000D01*
X135647619Y-134390476D01*
X135552380Y-134580952D01*
X135457142Y-134961904D01*
X135457142Y-135247619D01*
X135552380Y-135628571D01*
X135647619Y-135819047D01*
X135838095Y-136009523D01*
X136123809Y-136104761D01*
X136600000Y-136104761D01*
X133838095Y-136009523D02*
X134028571Y-136104761D01*
X134409523Y-136104761D01*
X134600000Y-136009523D01*
X134695238Y-135819047D01*
X134695238Y-135057142D01*
X134600000Y-134866666D01*
X134409523Y-134771428D01*
X134028571Y-134771428D01*
X133838095Y-134866666D01*
X133742857Y-135057142D01*
X133742857Y-135247619D01*
X134695238Y-135438095D01*
X133171428Y-134771428D02*
X132409523Y-134771428D01*
X132885714Y-134104761D02*
X132885714Y-135819047D01*
X132790476Y-136009523D01*
X132600000Y-136104761D01*
X132409523Y-136104761D01*
X130885714Y-136104761D02*
X130885714Y-135057142D01*
X130980952Y-134866666D01*
X131171428Y-134771428D01*
X131552380Y-134771428D01*
X131742857Y-134866666D01*
X130885714Y-136009523D02*
X131076190Y-136104761D01*
X131552380Y-136104761D01*
X131742857Y-136009523D01*
X131838095Y-135819047D01*
X131838095Y-135628571D01*
X131742857Y-135438095D01*
X131552380Y-135342857D01*
X131076190Y-135342857D01*
X130885714Y-135247619D01*
X129933333Y-136104761D02*
X129933333Y-134771428D01*
X129933333Y-134104761D02*
X130028571Y-134200000D01*
X129933333Y-134295238D01*
X129838095Y-134200000D01*
X129933333Y-134104761D01*
X129933333Y-134295238D01*
X128695238Y-136104761D02*
X128885714Y-136009523D01*
X128980952Y-135819047D01*
X128980952Y-134104761D01*
X127171428Y-136009523D02*
X127361904Y-136104761D01*
X127742857Y-136104761D01*
X127933333Y-136009523D01*
X128028571Y-135819047D01*
X128028571Y-135057142D01*
X127933333Y-134866666D01*
X127742857Y-134771428D01*
X127361904Y-134771428D01*
X127171428Y-134866666D01*
X127076190Y-135057142D01*
X127076190Y-135247619D01*
X128028571Y-135438095D01*
X125361904Y-136104761D02*
X125361904Y-134104761D01*
X125361904Y-136009523D02*
X125552380Y-136104761D01*
X125933333Y-136104761D01*
X126123809Y-136009523D01*
X126219047Y-135914285D01*
X126314285Y-135723809D01*
X126314285Y-135152380D01*
X126219047Y-134961904D01*
X126123809Y-134866666D01*
X125933333Y-134771428D01*
X125552380Y-134771428D01*
X125361904Y-134866666D01*
X122885714Y-136104761D02*
X122885714Y-134104761D01*
X121933333Y-134771428D02*
X121933333Y-136104761D01*
X121933333Y-134961904D02*
X121838095Y-134866666D01*
X121647619Y-134771428D01*
X121361904Y-134771428D01*
X121171428Y-134866666D01*
X121076190Y-135057142D01*
X121076190Y-136104761D01*
X120219047Y-136009523D02*
X120028571Y-136104761D01*
X119647619Y-136104761D01*
X119457142Y-136009523D01*
X119361904Y-135819047D01*
X119361904Y-135723809D01*
X119457142Y-135533333D01*
X119647619Y-135438095D01*
X119933333Y-135438095D01*
X120123809Y-135342857D01*
X120219047Y-135152380D01*
X120219047Y-135057142D01*
X120123809Y-134866666D01*
X119933333Y-134771428D01*
X119647619Y-134771428D01*
X119457142Y-134866666D01*
X118790476Y-134771428D02*
X118028571Y-134771428D01*
X118504761Y-134104761D02*
X118504761Y-135819047D01*
X118409523Y-136009523D01*
X118219047Y-136104761D01*
X118028571Y-136104761D01*
X117361904Y-136104761D02*
X117361904Y-134771428D01*
X117361904Y-135152380D02*
X117266666Y-134961904D01*
X117171428Y-134866666D01*
X116980952Y-134771428D01*
X116790476Y-134771428D01*
X115266666Y-134771428D02*
X115266666Y-136104761D01*
X116123809Y-134771428D02*
X116123809Y-135819047D01*
X116028571Y-136009523D01*
X115838095Y-136104761D01*
X115552380Y-136104761D01*
X115361904Y-136009523D01*
X115266666Y-135914285D01*
X113457142Y-136009523D02*
X113647619Y-136104761D01*
X114028571Y-136104761D01*
X114219047Y-136009523D01*
X114314285Y-135914285D01*
X114409523Y-135723809D01*
X114409523Y-135152380D01*
X114314285Y-134961904D01*
X114219047Y-134866666D01*
X114028571Y-134771428D01*
X113647619Y-134771428D01*
X113457142Y-134866666D01*
X112885714Y-134771428D02*
X112123809Y-134771428D01*
X112600000Y-134104761D02*
X112600000Y-135819047D01*
X112504761Y-136009523D01*
X112314285Y-136104761D01*
X112123809Y-136104761D01*
X111457142Y-136104761D02*
X111457142Y-134771428D01*
X111457142Y-134104761D02*
X111552380Y-134200000D01*
X111457142Y-134295238D01*
X111361904Y-134200000D01*
X111457142Y-134104761D01*
X111457142Y-134295238D01*
X110219047Y-136104761D02*
X110409523Y-136009523D01*
X110504761Y-135914285D01*
X110600000Y-135723809D01*
X110600000Y-135152380D01*
X110504761Y-134961904D01*
X110409523Y-134866666D01*
X110219047Y-134771428D01*
X109933333Y-134771428D01*
X109742857Y-134866666D01*
X109647619Y-134961904D01*
X109552380Y-135152380D01*
X109552380Y-135723809D01*
X109647619Y-135914285D01*
X109742857Y-136009523D01*
X109933333Y-136104761D01*
X110219047Y-136104761D01*
X108695238Y-134771428D02*
X108695238Y-136104761D01*
X108695238Y-134961904D02*
X108600000Y-134866666D01*
X108409523Y-134771428D01*
X108123809Y-134771428D01*
X107933333Y-134866666D01*
X107838095Y-135057142D01*
X107838095Y-136104761D01*
X106980952Y-136009523D02*
X106790476Y-136104761D01*
X106409523Y-136104761D01*
X106219047Y-136009523D01*
X106123809Y-135819047D01*
X106123809Y-135723809D01*
X106219047Y-135533333D01*
X106409523Y-135438095D01*
X106695238Y-135438095D01*
X106885714Y-135342857D01*
X106980952Y-135152380D01*
X106980952Y-135057142D01*
X106885714Y-134866666D01*
X106695238Y-134771428D01*
X106409523Y-134771428D01*
X106219047Y-134866666D01*
X102885714Y-136104761D02*
X102885714Y-135057142D01*
X102980952Y-134866666D01*
X103171428Y-134771428D01*
X103552380Y-134771428D01*
X103742857Y-134866666D01*
X102885714Y-136009523D02*
X103076190Y-136104761D01*
X103552380Y-136104761D01*
X103742857Y-136009523D01*
X103838095Y-135819047D01*
X103838095Y-135628571D01*
X103742857Y-135438095D01*
X103552380Y-135342857D01*
X103076190Y-135342857D01*
X102885714Y-135247619D01*
X102219047Y-134771428D02*
X101457142Y-134771428D01*
X101933333Y-134104761D02*
X101933333Y-135819047D01*
X101838095Y-136009523D01*
X101647619Y-136104761D01*
X101457142Y-136104761D01*
X100790476Y-135914285D02*
X100695238Y-136009523D01*
X100790476Y-136104761D01*
X100885714Y-136009523D01*
X100790476Y-135914285D01*
X100790476Y-136104761D01*
X100790476Y-134866666D02*
X100695238Y-134961904D01*
X100790476Y-135057142D01*
X100885714Y-134961904D01*
X100790476Y-134866666D01*
X100790476Y-135057142D01*
X142552380Y-139504761D02*
X142171428Y-139504761D01*
X141980952Y-139409523D01*
X141885714Y-139314285D01*
X141695238Y-139028571D01*
X141600000Y-138647619D01*
X141600000Y-137885714D01*
X141695238Y-137695238D01*
X141790476Y-137600000D01*
X141980952Y-137504761D01*
X142361904Y-137504761D01*
X142552380Y-137600000D01*
X142647619Y-137695238D01*
X142742857Y-137885714D01*
X142742857Y-138361904D01*
X142647619Y-138552380D01*
X142552380Y-138647619D01*
X142361904Y-138742857D01*
X141980952Y-138742857D01*
X141790476Y-138647619D01*
X141695238Y-138552380D01*
X141600000Y-138361904D01*
X140361904Y-137504761D02*
X140171428Y-137504761D01*
X139980952Y-137600000D01*
X139885714Y-137695238D01*
X139790476Y-137885714D01*
X139695238Y-138266666D01*
X139695238Y-138742857D01*
X139790476Y-139123809D01*
X139885714Y-139314285D01*
X139980952Y-139409523D01*
X140171428Y-139504761D01*
X140361904Y-139504761D01*
X140552380Y-139409523D01*
X140647619Y-139314285D01*
X140742857Y-139123809D01*
X140838095Y-138742857D01*
X140838095Y-138266666D01*
X140742857Y-137885714D01*
X140647619Y-137695238D01*
X140552380Y-137600000D01*
X140361904Y-137504761D01*
X137980952Y-137504761D02*
X138361904Y-137504761D01*
X138552380Y-137600000D01*
X138647619Y-137695238D01*
X138838095Y-137980952D01*
X138933333Y-138361904D01*
X138933333Y-139123809D01*
X138838095Y-139314285D01*
X138742857Y-139409523D01*
X138552380Y-139504761D01*
X138171428Y-139504761D01*
X137980952Y-139409523D01*
X137885714Y-139314285D01*
X137790476Y-139123809D01*
X137790476Y-138647619D01*
X137885714Y-138457142D01*
X137980952Y-138361904D01*
X138171428Y-138266666D01*
X138552380Y-138266666D01*
X138742857Y-138361904D01*
X138838095Y-138457142D01*
X138933333Y-138647619D01*
X137123809Y-137504761D02*
X135790476Y-137504761D01*
X136647619Y-139504761D01*
X135028571Y-139314285D02*
X134933333Y-139409523D01*
X135028571Y-139504761D01*
X135123809Y-139409523D01*
X135028571Y-139314285D01*
X135028571Y-139504761D01*
X132933333Y-139314285D02*
X133028571Y-139409523D01*
X133314285Y-139504761D01*
X133504761Y-139504761D01*
X133790476Y-139409523D01*
X133980952Y-139219047D01*
X134076190Y-139028571D01*
X134171428Y-138647619D01*
X134171428Y-138361904D01*
X134076190Y-137980952D01*
X133980952Y-137790476D01*
X133790476Y-137600000D01*
X133504761Y-137504761D01*
X133314285Y-137504761D01*
X133028571Y-137600000D01*
X132933333Y-137695238D01*
X132266666Y-138171428D02*
X131790476Y-139504761D01*
X131314285Y-138171428D02*
X131790476Y-139504761D01*
X131980952Y-139980952D01*
X132076190Y-140076190D01*
X132266666Y-140171428D01*
X130552380Y-139504761D02*
X130552380Y-137504761D01*
X130552380Y-138266666D02*
X130361904Y-138171428D01*
X129980952Y-138171428D01*
X129790476Y-138266666D01*
X129695238Y-138361904D01*
X129600000Y-138552380D01*
X129600000Y-139123809D01*
X129695238Y-139314285D01*
X129790476Y-139409523D01*
X129980952Y-139504761D01*
X130361904Y-139504761D01*
X130552380Y-139409523D01*
X127980952Y-139409523D02*
X128171428Y-139504761D01*
X128552380Y-139504761D01*
X128742857Y-139409523D01*
X128838095Y-139219047D01*
X128838095Y-138457142D01*
X128742857Y-138266666D01*
X128552380Y-138171428D01*
X128171428Y-138171428D01*
X127980952Y-138266666D01*
X127885714Y-138457142D01*
X127885714Y-138647619D01*
X128838095Y-138838095D01*
X127028571Y-139504761D02*
X127028571Y-138171428D01*
X127028571Y-138552380D02*
X126933333Y-138361904D01*
X126838095Y-138266666D01*
X126647619Y-138171428D01*
X126457142Y-138171428D01*
X124647619Y-139314285D02*
X124742857Y-139409523D01*
X125028571Y-139504761D01*
X125219047Y-139504761D01*
X125504761Y-139409523D01*
X125695238Y-139219047D01*
X125790476Y-139028571D01*
X125885714Y-138647619D01*
X125885714Y-138361904D01*
X125790476Y-137980952D01*
X125695238Y-137790476D01*
X125504761Y-137600000D01*
X125219047Y-137504761D01*
X125028571Y-137504761D01*
X124742857Y-137600000D01*
X124647619Y-137695238D01*
X123790476Y-139504761D02*
X123790476Y-138171428D01*
X123790476Y-137504761D02*
X123885714Y-137600000D01*
X123790476Y-137695238D01*
X123695238Y-137600000D01*
X123790476Y-137504761D01*
X123790476Y-137695238D01*
X123123809Y-138171428D02*
X122361904Y-138171428D01*
X122838095Y-137504761D02*
X122838095Y-139219047D01*
X122742857Y-139409523D01*
X122552380Y-139504761D01*
X122361904Y-139504761D01*
X121885714Y-138171428D02*
X121409523Y-139504761D01*
X120933333Y-138171428D02*
X121409523Y-139504761D01*
X121600000Y-139980952D01*
X121695238Y-140076190D01*
X121885714Y-140171428D01*
X119028571Y-139314285D02*
X119123809Y-139409523D01*
X119409523Y-139504761D01*
X119600000Y-139504761D01*
X119885714Y-139409523D01*
X120076190Y-139219047D01*
X120171428Y-139028571D01*
X120266666Y-138647619D01*
X120266666Y-138361904D01*
X120171428Y-137980952D01*
X120076190Y-137790476D01*
X119885714Y-137600000D01*
X119600000Y-137504761D01*
X119409523Y-137504761D01*
X119123809Y-137600000D01*
X119028571Y-137695238D01*
X118171428Y-139504761D02*
X118171428Y-138171428D01*
X118171428Y-137504761D02*
X118266666Y-137600000D01*
X118171428Y-137695238D01*
X118076190Y-137600000D01*
X118171428Y-137504761D01*
X118171428Y-137695238D01*
X117219047Y-139504761D02*
X117219047Y-138171428D01*
X117219047Y-138552380D02*
X117123809Y-138361904D01*
X117028571Y-138266666D01*
X116838095Y-138171428D01*
X116647619Y-138171428D01*
X115123809Y-139409523D02*
X115314285Y-139504761D01*
X115695238Y-139504761D01*
X115885714Y-139409523D01*
X115980952Y-139314285D01*
X116076190Y-139123809D01*
X116076190Y-138552380D01*
X115980952Y-138361904D01*
X115885714Y-138266666D01*
X115695238Y-138171428D01*
X115314285Y-138171428D01*
X115123809Y-138266666D01*
X113409523Y-138171428D02*
X113409523Y-139504761D01*
X114266666Y-138171428D02*
X114266666Y-139219047D01*
X114171428Y-139409523D01*
X113980952Y-139504761D01*
X113695238Y-139504761D01*
X113504761Y-139409523D01*
X113409523Y-139314285D01*
X112457142Y-139504761D02*
X112457142Y-138171428D01*
X112457142Y-137504761D02*
X112552380Y-137600000D01*
X112457142Y-137695238D01*
X112361904Y-137600000D01*
X112457142Y-137504761D01*
X112457142Y-137695238D01*
X111790476Y-138171428D02*
X111028571Y-138171428D01*
X111504761Y-137504761D02*
X111504761Y-139219047D01*
X111409523Y-139409523D01*
X111219047Y-139504761D01*
X111028571Y-139504761D01*
X110457142Y-139409523D02*
X110266666Y-139504761D01*
X109885714Y-139504761D01*
X109695238Y-139409523D01*
X109600000Y-139219047D01*
X109600000Y-139123809D01*
X109695238Y-138933333D01*
X109885714Y-138838095D01*
X110171428Y-138838095D01*
X110361904Y-138742857D01*
X110457142Y-138552380D01*
X110457142Y-138457142D01*
X110361904Y-138266666D01*
X110171428Y-138171428D01*
X109885714Y-138171428D01*
X109695238Y-138266666D01*
X108742857Y-139314285D02*
X108647619Y-139409523D01*
X108742857Y-139504761D01*
X108838095Y-139409523D01*
X108742857Y-139314285D01*
X108742857Y-139504761D01*
X106933333Y-139409523D02*
X107123809Y-139504761D01*
X107504761Y-139504761D01*
X107695238Y-139409523D01*
X107790476Y-139314285D01*
X107885714Y-139123809D01*
X107885714Y-138552380D01*
X107790476Y-138361904D01*
X107695238Y-138266666D01*
X107504761Y-138171428D01*
X107123809Y-138171428D01*
X106933333Y-138266666D01*
X105790476Y-139504761D02*
X105980952Y-139409523D01*
X106076190Y-139314285D01*
X106171428Y-139123809D01*
X106171428Y-138552380D01*
X106076190Y-138361904D01*
X105980952Y-138266666D01*
X105790476Y-138171428D01*
X105504761Y-138171428D01*
X105314285Y-138266666D01*
X105219047Y-138361904D01*
X105123809Y-138552380D01*
X105123809Y-139123809D01*
X105219047Y-139314285D01*
X105314285Y-139409523D01*
X105504761Y-139504761D01*
X105790476Y-139504761D01*
X104266666Y-139504761D02*
X104266666Y-138171428D01*
X104266666Y-138361904D02*
X104171428Y-138266666D01*
X103980952Y-138171428D01*
X103695238Y-138171428D01*
X103504761Y-138266666D01*
X103409523Y-138457142D01*
X103409523Y-139504761D01*
X103409523Y-138457142D02*
X103314285Y-138266666D01*
X103123809Y-138171428D01*
X102838095Y-138171428D01*
X102647619Y-138266666D01*
X102552380Y-138457142D01*
X102552380Y-139504761D01*
D12*
X52352380Y-142057142D02*
X52352380Y-141485714D01*
X52352380Y-141771428D02*
X51352380Y-141771428D01*
X51495238Y-141676190D01*
X51590476Y-141580952D01*
X51638095Y-141485714D01*
X51352380Y-142676190D02*
X51352380Y-142771428D01*
X51400000Y-142866666D01*
X51447619Y-142914285D01*
X51542857Y-142961904D01*
X51733333Y-143009523D01*
X51971428Y-143009523D01*
X52161904Y-142961904D01*
X52257142Y-142914285D01*
X52304761Y-142866666D01*
X52352380Y-142771428D01*
X52352380Y-142676190D01*
X52304761Y-142580952D01*
X52257142Y-142533333D01*
X52161904Y-142485714D01*
X51971428Y-142438095D01*
X51733333Y-142438095D01*
X51542857Y-142485714D01*
X51447619Y-142533333D01*
X51400000Y-142580952D01*
X51352380Y-142676190D01*
X51352380Y-143866666D02*
X51352380Y-143676190D01*
X51400000Y-143580952D01*
X51447619Y-143533333D01*
X51590476Y-143438095D01*
X51780952Y-143390476D01*
X52161904Y-143390476D01*
X52257142Y-143438095D01*
X52304761Y-143485714D01*
X52352380Y-143580952D01*
X52352380Y-143771428D01*
X52304761Y-143866666D01*
X52257142Y-143914285D01*
X52161904Y-143961904D01*
X51923809Y-143961904D01*
X51828571Y-143914285D01*
X51780952Y-143866666D01*
X51733333Y-143771428D01*
X51733333Y-143580952D01*
X51780952Y-143485714D01*
X51828571Y-143438095D01*
X51923809Y-143390476D01*
X52352380Y-144914285D02*
X52352380Y-144342857D01*
X52352380Y-144628571D02*
X51352380Y-144628571D01*
X51495238Y-144533333D01*
X51590476Y-144438095D01*
X51638095Y-144342857D01*
%LPC*%
D13*
%TO.C,J1*%
X146200000Y-139640000D03*
D14*
X146200000Y-137100000D03*
%TD*%
D15*
%TO.C,C1*%
X63870000Y-142890000D03*
X63870000Y-147890000D03*
%TD*%
D16*
%TO.C,D101*%
X74000000Y-57270000D03*
D17*
X74000000Y-54730000D03*
%TD*%
D16*
%TO.C,D102*%
X90000000Y-57270000D03*
D17*
X90000000Y-54730000D03*
%TD*%
%TO.C,D103*%
X90000000Y-70730000D03*
D16*
X90000000Y-73270000D03*
%TD*%
%TO.C,D104*%
X74000000Y-73270000D03*
D17*
X74000000Y-70730000D03*
%TD*%
%TO.C,D105*%
X82000000Y-54730000D03*
D16*
X82000000Y-57270000D03*
%TD*%
%TO.C,D106*%
X90000000Y-65270000D03*
D17*
X90000000Y-62730000D03*
%TD*%
%TO.C,D107*%
X82000000Y-70730000D03*
D16*
X82000000Y-73270000D03*
%TD*%
%TO.C,D108*%
X74000000Y-65270000D03*
D17*
X74000000Y-62730000D03*
%TD*%
%TO.C,D201*%
X100000000Y-54730000D03*
D16*
X100000000Y-57270000D03*
%TD*%
%TO.C,D202*%
X116000000Y-57270000D03*
D17*
X116000000Y-54730000D03*
%TD*%
D16*
%TO.C,D203*%
X116000000Y-73270000D03*
D17*
X116000000Y-70730000D03*
%TD*%
D16*
%TO.C,D204*%
X100000000Y-73270000D03*
D17*
X100000000Y-70730000D03*
%TD*%
%TO.C,D205*%
X108000000Y-54730000D03*
D16*
X108000000Y-57270000D03*
%TD*%
%TO.C,D206*%
X116000000Y-65270000D03*
D17*
X116000000Y-62730000D03*
%TD*%
%TO.C,D207*%
X108000000Y-70730000D03*
D16*
X108000000Y-73270000D03*
%TD*%
%TO.C,D208*%
X100000000Y-65270000D03*
D17*
X100000000Y-62730000D03*
%TD*%
%TO.C,D301*%
X126000000Y-54730000D03*
D16*
X126000000Y-57270000D03*
%TD*%
%TO.C,D302*%
X142000000Y-57270000D03*
D17*
X142000000Y-54730000D03*
%TD*%
%TO.C,D303*%
X142000000Y-70730000D03*
D16*
X142000000Y-73270000D03*
%TD*%
%TO.C,D304*%
X126000000Y-73270000D03*
D17*
X126000000Y-70730000D03*
%TD*%
%TO.C,D305*%
X134000000Y-54730000D03*
D16*
X134000000Y-57270000D03*
%TD*%
%TO.C,D306*%
X142000000Y-65270000D03*
D17*
X142000000Y-62730000D03*
%TD*%
%TO.C,D307*%
X134000000Y-70730000D03*
D16*
X134000000Y-73270000D03*
%TD*%
D17*
%TO.C,D308*%
X126000000Y-62730000D03*
D16*
X126000000Y-65270000D03*
%TD*%
D17*
%TO.C,D401*%
X74000000Y-80730000D03*
D16*
X74000000Y-83270000D03*
%TD*%
%TO.C,D402*%
X90000000Y-83270000D03*
D17*
X90000000Y-80730000D03*
%TD*%
%TO.C,D403*%
X90000000Y-96730000D03*
D16*
X90000000Y-99270000D03*
%TD*%
%TO.C,D404*%
X74000000Y-99270000D03*
D17*
X74000000Y-96730000D03*
%TD*%
%TO.C,D405*%
X82000000Y-80730000D03*
D16*
X82000000Y-83270000D03*
%TD*%
%TO.C,D406*%
X90000000Y-91270000D03*
D17*
X90000000Y-88730000D03*
%TD*%
%TO.C,D407*%
X82000000Y-96730000D03*
D16*
X82000000Y-99270000D03*
%TD*%
%TO.C,D408*%
X74000000Y-91270000D03*
D17*
X74000000Y-88730000D03*
%TD*%
%TO.C,D501*%
X100000000Y-80730000D03*
D16*
X100000000Y-83270000D03*
%TD*%
%TO.C,D502*%
X116000000Y-83270000D03*
D17*
X116000000Y-80730000D03*
%TD*%
D16*
%TO.C,D503*%
X116000000Y-99270000D03*
D17*
X116000000Y-96730000D03*
%TD*%
%TO.C,D504*%
X100000000Y-96730000D03*
D16*
X100000000Y-99270000D03*
%TD*%
%TO.C,D505*%
X108000000Y-83270000D03*
D17*
X108000000Y-80730000D03*
%TD*%
%TO.C,D506*%
X116000000Y-88730000D03*
D16*
X116000000Y-91270000D03*
%TD*%
%TO.C,D507*%
X108000000Y-99270000D03*
D17*
X108000000Y-96730000D03*
%TD*%
%TO.C,D508*%
X100000000Y-88730000D03*
D16*
X100000000Y-91270000D03*
%TD*%
%TO.C,D601*%
X126000000Y-83270000D03*
D17*
X126000000Y-80730000D03*
%TD*%
%TO.C,D602*%
X142000000Y-80730000D03*
D16*
X142000000Y-83270000D03*
%TD*%
%TO.C,D603*%
X142000000Y-99270000D03*
D17*
X142000000Y-96730000D03*
%TD*%
%TO.C,D604*%
X126000000Y-96730000D03*
D16*
X126000000Y-99270000D03*
%TD*%
%TO.C,D605*%
X134000000Y-83270000D03*
D17*
X134000000Y-80730000D03*
%TD*%
%TO.C,D606*%
X142000000Y-88730000D03*
D16*
X142000000Y-91270000D03*
%TD*%
%TO.C,D607*%
X134000000Y-99270000D03*
D17*
X134000000Y-96730000D03*
%TD*%
%TO.C,D608*%
X126000000Y-88730000D03*
D16*
X126000000Y-91270000D03*
%TD*%
%TO.C,D701*%
X74000000Y-109270000D03*
D17*
X74000000Y-106730000D03*
%TD*%
%TO.C,D702*%
X90000000Y-106730000D03*
D16*
X90000000Y-109270000D03*
%TD*%
%TO.C,D703*%
X90000000Y-125270000D03*
D17*
X90000000Y-122730000D03*
%TD*%
%TO.C,D704*%
X74000000Y-122730000D03*
D16*
X74000000Y-125270000D03*
%TD*%
D17*
%TO.C,D705*%
X82000000Y-106730000D03*
D16*
X82000000Y-109270000D03*
%TD*%
D17*
%TO.C,D706*%
X90000000Y-114730000D03*
D16*
X90000000Y-117270000D03*
%TD*%
D17*
%TO.C,D707*%
X82000000Y-122730000D03*
D16*
X82000000Y-125270000D03*
%TD*%
%TO.C,D708*%
X74000000Y-117270000D03*
D17*
X74000000Y-114730000D03*
%TD*%
%TO.C,D801*%
X100000000Y-106730000D03*
D16*
X100000000Y-109270000D03*
%TD*%
%TO.C,D802*%
X116000000Y-109270000D03*
D17*
X116000000Y-106730000D03*
%TD*%
%TO.C,D803*%
X116000000Y-122730000D03*
D16*
X116000000Y-125270000D03*
%TD*%
%TO.C,D804*%
X100000000Y-125270000D03*
D17*
X100000000Y-122730000D03*
%TD*%
%TO.C,D805*%
X108000000Y-106730000D03*
D16*
X108000000Y-109270000D03*
%TD*%
%TO.C,D806*%
X116000000Y-117270000D03*
D17*
X116000000Y-114730000D03*
%TD*%
%TO.C,D807*%
X108000000Y-122730000D03*
D16*
X108000000Y-125270000D03*
%TD*%
%TO.C,D808*%
X100000000Y-117270000D03*
D17*
X100000000Y-114730000D03*
%TD*%
%TO.C,D901*%
X126000000Y-106730000D03*
D16*
X126000000Y-109270000D03*
%TD*%
%TO.C,D902*%
X142000000Y-109270000D03*
D17*
X142000000Y-106730000D03*
%TD*%
%TO.C,D903*%
X142000000Y-122730000D03*
D16*
X142000000Y-125270000D03*
%TD*%
%TO.C,D904*%
X126000000Y-125270000D03*
D17*
X126000000Y-122730000D03*
%TD*%
%TO.C,D905*%
X134000000Y-106730000D03*
D16*
X134000000Y-109270000D03*
%TD*%
%TO.C,D906*%
X142000000Y-117270000D03*
D17*
X142000000Y-114730000D03*
%TD*%
%TO.C,D907*%
X134000000Y-122730000D03*
D16*
X134000000Y-125270000D03*
%TD*%
%TO.C,D908*%
X126000000Y-117270000D03*
D17*
X126000000Y-114730000D03*
%TD*%
D15*
%TO.C,R1*%
X67000000Y-54000000D03*
X57000000Y-54000000D03*
%TD*%
%TO.C,R2*%
X67000000Y-63000000D03*
X57000000Y-63000000D03*
%TD*%
%TO.C,R3*%
X67000000Y-72000000D03*
X57000000Y-72000000D03*
%TD*%
%TO.C,R4*%
X57000000Y-81000000D03*
X67000000Y-81000000D03*
%TD*%
%TO.C,R5*%
X67000000Y-90000000D03*
X57000000Y-90000000D03*
%TD*%
%TO.C,R6*%
X57000000Y-99000000D03*
X67000000Y-99000000D03*
%TD*%
%TO.C,R7*%
X67000000Y-108000000D03*
X57000000Y-108000000D03*
%TD*%
%TO.C,R8*%
X57000000Y-117000000D03*
X67000000Y-117000000D03*
%TD*%
%TO.C,R9*%
X67000000Y-126000000D03*
X57000000Y-126000000D03*
%TD*%
%TO.C,R10*%
X60500000Y-148010000D03*
X60500000Y-138010000D03*
%TD*%
%TO.C,R11*%
X57500000Y-138010000D03*
X57500000Y-148010000D03*
%TD*%
%TO.C,R12*%
X54500000Y-138010000D03*
X54500000Y-148010000D03*
%TD*%
%TO.C,R101*%
X57000000Y-57000000D03*
X67000000Y-57000000D03*
%TD*%
%TO.C,R102*%
X67000000Y-60000000D03*
X57000000Y-60000000D03*
%TD*%
%TO.C,R201*%
X67000000Y-66000000D03*
X57000000Y-66000000D03*
%TD*%
%TO.C,R202*%
X57000000Y-69000000D03*
X67000000Y-69000000D03*
%TD*%
%TO.C,R301*%
X57000000Y-75000000D03*
X67000000Y-75000000D03*
%TD*%
%TO.C,R302*%
X67000000Y-78000000D03*
X57000000Y-78000000D03*
%TD*%
%TO.C,R401*%
X57000000Y-84000000D03*
X67000000Y-84000000D03*
%TD*%
%TO.C,R402*%
X67000000Y-87000000D03*
X57000000Y-87000000D03*
%TD*%
%TO.C,R501*%
X67000000Y-93000000D03*
X57000000Y-93000000D03*
%TD*%
%TO.C,R502*%
X57000000Y-96000000D03*
X67000000Y-96000000D03*
%TD*%
%TO.C,R601*%
X67000000Y-102000000D03*
X57000000Y-102000000D03*
%TD*%
%TO.C,R602*%
X57000000Y-105000000D03*
X67000000Y-105000000D03*
%TD*%
%TO.C,R701*%
X67000000Y-111000000D03*
X57000000Y-111000000D03*
%TD*%
%TO.C,R702*%
X57000000Y-114000000D03*
X67000000Y-114000000D03*
%TD*%
%TO.C,R801*%
X57000000Y-120000000D03*
X67000000Y-120000000D03*
%TD*%
%TO.C,R802*%
X67000000Y-123000000D03*
X57000000Y-123000000D03*
%TD*%
%TO.C,R901*%
X67000000Y-129000000D03*
X57000000Y-129000000D03*
%TD*%
%TO.C,R902*%
X67000000Y-132000000D03*
X57000000Y-132000000D03*
%TD*%
D18*
%TO.C,SW1*%
X79750000Y-67250000D03*
X79750000Y-60750000D03*
X84250000Y-67250000D03*
X84250000Y-60750000D03*
%TD*%
%TO.C,SW2*%
X105750000Y-67250000D03*
X105750000Y-60750000D03*
X110250000Y-67250000D03*
X110250000Y-60750000D03*
%TD*%
%TO.C,SW3*%
X136250000Y-60750000D03*
X136250000Y-67250000D03*
X131750000Y-60750000D03*
X131750000Y-67250000D03*
%TD*%
%TO.C,SW4*%
X79750000Y-93250000D03*
X79750000Y-86750000D03*
X84250000Y-93250000D03*
X84250000Y-86750000D03*
%TD*%
%TO.C,SW5*%
X110250000Y-86750000D03*
X110250000Y-93250000D03*
X105750000Y-86750000D03*
X105750000Y-93250000D03*
%TD*%
%TO.C,SW6*%
X131750000Y-93250000D03*
X131750000Y-86750000D03*
X136250000Y-93250000D03*
X136250000Y-86750000D03*
%TD*%
%TO.C,SW7*%
X84250000Y-112750000D03*
X84250000Y-119250000D03*
X79750000Y-112750000D03*
X79750000Y-119250000D03*
%TD*%
%TO.C,SW8*%
X110250000Y-112750000D03*
X110250000Y-119250000D03*
X105750000Y-112750000D03*
X105750000Y-119250000D03*
%TD*%
%TO.C,SW9*%
X131750000Y-119250000D03*
X131750000Y-112750000D03*
X136250000Y-119250000D03*
X136250000Y-112750000D03*
%TD*%
D19*
%TO.C,U1*%
X108000000Y-146000000D03*
D20*
X141020000Y-130760000D03*
X110540000Y-146000000D03*
X138480000Y-130760000D03*
X113080000Y-146000000D03*
X135940000Y-130760000D03*
X115620000Y-146000000D03*
X133400000Y-130760000D03*
X118160000Y-146000000D03*
X130860000Y-130760000D03*
X120700000Y-146000000D03*
X128320000Y-130760000D03*
X123240000Y-146000000D03*
X125780000Y-130760000D03*
X125780000Y-146000000D03*
X123240000Y-130760000D03*
X128320000Y-146000000D03*
X120700000Y-130760000D03*
X130860000Y-146000000D03*
X118160000Y-130760000D03*
X133400000Y-146000000D03*
X115620000Y-130760000D03*
X135940000Y-146000000D03*
X113080000Y-130760000D03*
X138480000Y-146000000D03*
X110540000Y-130760000D03*
X141020000Y-146000000D03*
X108000000Y-130760000D03*
X143560000Y-146000000D03*
X143560000Y-130760000D03*
%TD*%
D19*
%TO.C,U2*%
X100250000Y-140010000D03*
D20*
X67230000Y-147630000D03*
X97710000Y-140010000D03*
X69770000Y-147630000D03*
X95170000Y-140010000D03*
X72310000Y-147630000D03*
X92630000Y-140010000D03*
X74850000Y-147630000D03*
X90090000Y-140010000D03*
X77390000Y-147630000D03*
X87550000Y-140010000D03*
X79930000Y-147630000D03*
X85010000Y-140010000D03*
X82470000Y-147630000D03*
X82470000Y-140010000D03*
X85010000Y-147630000D03*
X79930000Y-140010000D03*
X87550000Y-147630000D03*
X77390000Y-140010000D03*
X90090000Y-147630000D03*
X74850000Y-140010000D03*
X92630000Y-147630000D03*
X72310000Y-140010000D03*
X95170000Y-147630000D03*
X69770000Y-140010000D03*
X97710000Y-147630000D03*
X67230000Y-140010000D03*
X100250000Y-147630000D03*
%TD*%
M02*
