%TF.GenerationSoftware,KiCad,Pcbnew,(5.1.9)-1*%
%TF.CreationDate,2021-03-23T14:53:16-04:00*%
%TF.ProjectId,TicTacToe,54696354-6163-4546-9f65-2e6b69636164,rev?*%
%TF.SameCoordinates,Original*%
%TF.FileFunction,Soldermask,Bot*%
%TF.FilePolarity,Negative*%
%FSLAX46Y46*%
G04 Gerber Fmt 4.6, Leading zero omitted, Abs format (unit mm)*
G04 Created by KiCad (PCBNEW (5.1.9)-1) date 2021-03-23 14:53:16*
%MOMM*%
%LPD*%
G01*
G04 APERTURE LIST*
%ADD10O,1.700000X1.700000*%
%ADD11R,1.700000X1.700000*%
%ADD12C,1.600000*%
%ADD13R,1.800000X1.800000*%
%ADD14C,1.800000*%
%ADD15C,2.200000*%
%ADD16R,1.600000X1.600000*%
%ADD17O,1.600000X1.600000*%
G04 APERTURE END LIST*
D10*
%TO.C,J1*%
X146200000Y-139640000D03*
D11*
X146200000Y-137100000D03*
%TD*%
D12*
%TO.C,C1*%
X63870000Y-142890000D03*
X63870000Y-147890000D03*
%TD*%
D13*
%TO.C,D101*%
X74000000Y-57270000D03*
D14*
X74000000Y-54730000D03*
%TD*%
D13*
%TO.C,D102*%
X90000000Y-57270000D03*
D14*
X90000000Y-54730000D03*
%TD*%
%TO.C,D103*%
X90000000Y-70730000D03*
D13*
X90000000Y-73270000D03*
%TD*%
%TO.C,D104*%
X74000000Y-73270000D03*
D14*
X74000000Y-70730000D03*
%TD*%
%TO.C,D105*%
X82000000Y-54730000D03*
D13*
X82000000Y-57270000D03*
%TD*%
%TO.C,D106*%
X90000000Y-65270000D03*
D14*
X90000000Y-62730000D03*
%TD*%
%TO.C,D107*%
X82000000Y-70730000D03*
D13*
X82000000Y-73270000D03*
%TD*%
%TO.C,D108*%
X74000000Y-65270000D03*
D14*
X74000000Y-62730000D03*
%TD*%
%TO.C,D201*%
X100000000Y-54730000D03*
D13*
X100000000Y-57270000D03*
%TD*%
%TO.C,D202*%
X116000000Y-57270000D03*
D14*
X116000000Y-54730000D03*
%TD*%
D13*
%TO.C,D203*%
X116000000Y-73270000D03*
D14*
X116000000Y-70730000D03*
%TD*%
D13*
%TO.C,D204*%
X100000000Y-73270000D03*
D14*
X100000000Y-70730000D03*
%TD*%
%TO.C,D205*%
X108000000Y-54730000D03*
D13*
X108000000Y-57270000D03*
%TD*%
%TO.C,D206*%
X116000000Y-65270000D03*
D14*
X116000000Y-62730000D03*
%TD*%
%TO.C,D207*%
X108000000Y-70730000D03*
D13*
X108000000Y-73270000D03*
%TD*%
%TO.C,D208*%
X100000000Y-65270000D03*
D14*
X100000000Y-62730000D03*
%TD*%
%TO.C,D301*%
X126000000Y-54730000D03*
D13*
X126000000Y-57270000D03*
%TD*%
%TO.C,D302*%
X142000000Y-57270000D03*
D14*
X142000000Y-54730000D03*
%TD*%
%TO.C,D303*%
X142000000Y-70730000D03*
D13*
X142000000Y-73270000D03*
%TD*%
%TO.C,D304*%
X126000000Y-73270000D03*
D14*
X126000000Y-70730000D03*
%TD*%
%TO.C,D305*%
X134000000Y-54730000D03*
D13*
X134000000Y-57270000D03*
%TD*%
%TO.C,D306*%
X142000000Y-65270000D03*
D14*
X142000000Y-62730000D03*
%TD*%
%TO.C,D307*%
X134000000Y-70730000D03*
D13*
X134000000Y-73270000D03*
%TD*%
D14*
%TO.C,D308*%
X126000000Y-62730000D03*
D13*
X126000000Y-65270000D03*
%TD*%
D14*
%TO.C,D401*%
X74000000Y-80730000D03*
D13*
X74000000Y-83270000D03*
%TD*%
%TO.C,D402*%
X90000000Y-83270000D03*
D14*
X90000000Y-80730000D03*
%TD*%
%TO.C,D403*%
X90000000Y-96730000D03*
D13*
X90000000Y-99270000D03*
%TD*%
%TO.C,D404*%
X74000000Y-99270000D03*
D14*
X74000000Y-96730000D03*
%TD*%
%TO.C,D405*%
X82000000Y-80730000D03*
D13*
X82000000Y-83270000D03*
%TD*%
%TO.C,D406*%
X90000000Y-91270000D03*
D14*
X90000000Y-88730000D03*
%TD*%
%TO.C,D407*%
X82000000Y-96730000D03*
D13*
X82000000Y-99270000D03*
%TD*%
%TO.C,D408*%
X74000000Y-91270000D03*
D14*
X74000000Y-88730000D03*
%TD*%
%TO.C,D501*%
X100000000Y-80730000D03*
D13*
X100000000Y-83270000D03*
%TD*%
%TO.C,D502*%
X116000000Y-83270000D03*
D14*
X116000000Y-80730000D03*
%TD*%
D13*
%TO.C,D503*%
X116000000Y-99270000D03*
D14*
X116000000Y-96730000D03*
%TD*%
%TO.C,D504*%
X100000000Y-96730000D03*
D13*
X100000000Y-99270000D03*
%TD*%
%TO.C,D505*%
X108000000Y-83270000D03*
D14*
X108000000Y-80730000D03*
%TD*%
%TO.C,D506*%
X116000000Y-88730000D03*
D13*
X116000000Y-91270000D03*
%TD*%
%TO.C,D507*%
X108000000Y-99270000D03*
D14*
X108000000Y-96730000D03*
%TD*%
%TO.C,D508*%
X100000000Y-88730000D03*
D13*
X100000000Y-91270000D03*
%TD*%
%TO.C,D601*%
X126000000Y-83270000D03*
D14*
X126000000Y-80730000D03*
%TD*%
%TO.C,D602*%
X142000000Y-80730000D03*
D13*
X142000000Y-83270000D03*
%TD*%
%TO.C,D603*%
X142000000Y-99270000D03*
D14*
X142000000Y-96730000D03*
%TD*%
%TO.C,D604*%
X126000000Y-96730000D03*
D13*
X126000000Y-99270000D03*
%TD*%
%TO.C,D605*%
X134000000Y-83270000D03*
D14*
X134000000Y-80730000D03*
%TD*%
%TO.C,D606*%
X142000000Y-88730000D03*
D13*
X142000000Y-91270000D03*
%TD*%
%TO.C,D607*%
X134000000Y-99270000D03*
D14*
X134000000Y-96730000D03*
%TD*%
%TO.C,D608*%
X126000000Y-88730000D03*
D13*
X126000000Y-91270000D03*
%TD*%
%TO.C,D701*%
X74000000Y-109270000D03*
D14*
X74000000Y-106730000D03*
%TD*%
%TO.C,D702*%
X90000000Y-106730000D03*
D13*
X90000000Y-109270000D03*
%TD*%
%TO.C,D703*%
X90000000Y-125270000D03*
D14*
X90000000Y-122730000D03*
%TD*%
%TO.C,D704*%
X74000000Y-122730000D03*
D13*
X74000000Y-125270000D03*
%TD*%
D14*
%TO.C,D705*%
X82000000Y-106730000D03*
D13*
X82000000Y-109270000D03*
%TD*%
D14*
%TO.C,D706*%
X90000000Y-114730000D03*
D13*
X90000000Y-117270000D03*
%TD*%
D14*
%TO.C,D707*%
X82000000Y-122730000D03*
D13*
X82000000Y-125270000D03*
%TD*%
%TO.C,D708*%
X74000000Y-117270000D03*
D14*
X74000000Y-114730000D03*
%TD*%
%TO.C,D801*%
X100000000Y-106730000D03*
D13*
X100000000Y-109270000D03*
%TD*%
%TO.C,D802*%
X116000000Y-109270000D03*
D14*
X116000000Y-106730000D03*
%TD*%
%TO.C,D803*%
X116000000Y-122730000D03*
D13*
X116000000Y-125270000D03*
%TD*%
%TO.C,D804*%
X100000000Y-125270000D03*
D14*
X100000000Y-122730000D03*
%TD*%
%TO.C,D805*%
X108000000Y-106730000D03*
D13*
X108000000Y-109270000D03*
%TD*%
%TO.C,D806*%
X116000000Y-117270000D03*
D14*
X116000000Y-114730000D03*
%TD*%
%TO.C,D807*%
X108000000Y-122730000D03*
D13*
X108000000Y-125270000D03*
%TD*%
%TO.C,D808*%
X100000000Y-117270000D03*
D14*
X100000000Y-114730000D03*
%TD*%
%TO.C,D901*%
X126000000Y-106730000D03*
D13*
X126000000Y-109270000D03*
%TD*%
%TO.C,D902*%
X142000000Y-109270000D03*
D14*
X142000000Y-106730000D03*
%TD*%
%TO.C,D903*%
X142000000Y-122730000D03*
D13*
X142000000Y-125270000D03*
%TD*%
%TO.C,D904*%
X126000000Y-125270000D03*
D14*
X126000000Y-122730000D03*
%TD*%
%TO.C,D905*%
X134000000Y-106730000D03*
D13*
X134000000Y-109270000D03*
%TD*%
%TO.C,D906*%
X142000000Y-117270000D03*
D14*
X142000000Y-114730000D03*
%TD*%
%TO.C,D907*%
X134000000Y-122730000D03*
D13*
X134000000Y-125270000D03*
%TD*%
%TO.C,D908*%
X126000000Y-117270000D03*
D14*
X126000000Y-114730000D03*
%TD*%
D12*
%TO.C,R1*%
X67000000Y-54000000D03*
X57000000Y-54000000D03*
%TD*%
%TO.C,R2*%
X67000000Y-63000000D03*
X57000000Y-63000000D03*
%TD*%
%TO.C,R3*%
X67000000Y-72000000D03*
X57000000Y-72000000D03*
%TD*%
%TO.C,R4*%
X57000000Y-81000000D03*
X67000000Y-81000000D03*
%TD*%
%TO.C,R5*%
X67000000Y-90000000D03*
X57000000Y-90000000D03*
%TD*%
%TO.C,R6*%
X57000000Y-99000000D03*
X67000000Y-99000000D03*
%TD*%
%TO.C,R7*%
X67000000Y-108000000D03*
X57000000Y-108000000D03*
%TD*%
%TO.C,R8*%
X57000000Y-117000000D03*
X67000000Y-117000000D03*
%TD*%
%TO.C,R9*%
X67000000Y-126000000D03*
X57000000Y-126000000D03*
%TD*%
%TO.C,R10*%
X60500000Y-148010000D03*
X60500000Y-138010000D03*
%TD*%
%TO.C,R11*%
X57500000Y-138010000D03*
X57500000Y-148010000D03*
%TD*%
%TO.C,R12*%
X54500000Y-138010000D03*
X54500000Y-148010000D03*
%TD*%
%TO.C,R101*%
X57000000Y-57000000D03*
X67000000Y-57000000D03*
%TD*%
%TO.C,R102*%
X67000000Y-60000000D03*
X57000000Y-60000000D03*
%TD*%
%TO.C,R201*%
X67000000Y-66000000D03*
X57000000Y-66000000D03*
%TD*%
%TO.C,R202*%
X57000000Y-69000000D03*
X67000000Y-69000000D03*
%TD*%
%TO.C,R301*%
X57000000Y-75000000D03*
X67000000Y-75000000D03*
%TD*%
%TO.C,R302*%
X67000000Y-78000000D03*
X57000000Y-78000000D03*
%TD*%
%TO.C,R401*%
X57000000Y-84000000D03*
X67000000Y-84000000D03*
%TD*%
%TO.C,R402*%
X67000000Y-87000000D03*
X57000000Y-87000000D03*
%TD*%
%TO.C,R501*%
X67000000Y-93000000D03*
X57000000Y-93000000D03*
%TD*%
%TO.C,R502*%
X57000000Y-96000000D03*
X67000000Y-96000000D03*
%TD*%
%TO.C,R601*%
X67000000Y-102000000D03*
X57000000Y-102000000D03*
%TD*%
%TO.C,R602*%
X57000000Y-105000000D03*
X67000000Y-105000000D03*
%TD*%
%TO.C,R701*%
X67000000Y-111000000D03*
X57000000Y-111000000D03*
%TD*%
%TO.C,R702*%
X57000000Y-114000000D03*
X67000000Y-114000000D03*
%TD*%
%TO.C,R801*%
X57000000Y-120000000D03*
X67000000Y-120000000D03*
%TD*%
%TO.C,R802*%
X67000000Y-123000000D03*
X57000000Y-123000000D03*
%TD*%
%TO.C,R901*%
X67000000Y-129000000D03*
X57000000Y-129000000D03*
%TD*%
%TO.C,R902*%
X67000000Y-132000000D03*
X57000000Y-132000000D03*
%TD*%
D15*
%TO.C,SW1*%
X79750000Y-67250000D03*
X79750000Y-60750000D03*
X84250000Y-67250000D03*
X84250000Y-60750000D03*
%TD*%
%TO.C,SW2*%
X105750000Y-67250000D03*
X105750000Y-60750000D03*
X110250000Y-67250000D03*
X110250000Y-60750000D03*
%TD*%
%TO.C,SW3*%
X136250000Y-60750000D03*
X136250000Y-67250000D03*
X131750000Y-60750000D03*
X131750000Y-67250000D03*
%TD*%
%TO.C,SW4*%
X79750000Y-93250000D03*
X79750000Y-86750000D03*
X84250000Y-93250000D03*
X84250000Y-86750000D03*
%TD*%
%TO.C,SW5*%
X110250000Y-86750000D03*
X110250000Y-93250000D03*
X105750000Y-86750000D03*
X105750000Y-93250000D03*
%TD*%
%TO.C,SW6*%
X131750000Y-93250000D03*
X131750000Y-86750000D03*
X136250000Y-93250000D03*
X136250000Y-86750000D03*
%TD*%
%TO.C,SW7*%
X84250000Y-112750000D03*
X84250000Y-119250000D03*
X79750000Y-112750000D03*
X79750000Y-119250000D03*
%TD*%
%TO.C,SW8*%
X110250000Y-112750000D03*
X110250000Y-119250000D03*
X105750000Y-112750000D03*
X105750000Y-119250000D03*
%TD*%
%TO.C,SW9*%
X131750000Y-119250000D03*
X131750000Y-112750000D03*
X136250000Y-119250000D03*
X136250000Y-112750000D03*
%TD*%
D16*
%TO.C,U1*%
X108000000Y-146000000D03*
D17*
X141020000Y-130760000D03*
X110540000Y-146000000D03*
X138480000Y-130760000D03*
X113080000Y-146000000D03*
X135940000Y-130760000D03*
X115620000Y-146000000D03*
X133400000Y-130760000D03*
X118160000Y-146000000D03*
X130860000Y-130760000D03*
X120700000Y-146000000D03*
X128320000Y-130760000D03*
X123240000Y-146000000D03*
X125780000Y-130760000D03*
X125780000Y-146000000D03*
X123240000Y-130760000D03*
X128320000Y-146000000D03*
X120700000Y-130760000D03*
X130860000Y-146000000D03*
X118160000Y-130760000D03*
X133400000Y-146000000D03*
X115620000Y-130760000D03*
X135940000Y-146000000D03*
X113080000Y-130760000D03*
X138480000Y-146000000D03*
X110540000Y-130760000D03*
X141020000Y-146000000D03*
X108000000Y-130760000D03*
X143560000Y-146000000D03*
X143560000Y-130760000D03*
%TD*%
D16*
%TO.C,U2*%
X100250000Y-140010000D03*
D17*
X67230000Y-147630000D03*
X97710000Y-140010000D03*
X69770000Y-147630000D03*
X95170000Y-140010000D03*
X72310000Y-147630000D03*
X92630000Y-140010000D03*
X74850000Y-147630000D03*
X90090000Y-140010000D03*
X77390000Y-147630000D03*
X87550000Y-140010000D03*
X79930000Y-147630000D03*
X85010000Y-140010000D03*
X82470000Y-147630000D03*
X82470000Y-140010000D03*
X85010000Y-147630000D03*
X79930000Y-140010000D03*
X87550000Y-147630000D03*
X77390000Y-140010000D03*
X90090000Y-147630000D03*
X74850000Y-140010000D03*
X92630000Y-147630000D03*
X72310000Y-140010000D03*
X95170000Y-147630000D03*
X69770000Y-140010000D03*
X97710000Y-147630000D03*
X67230000Y-140010000D03*
X100250000Y-147630000D03*
%TD*%
M02*
