M48
; DRILL file {KiCad (5.1.9)-1} date 03/23/21 14:53:20
; FORMAT={-:-/ absolute / inch / decimal}
; #@! TF.CreationDate,2021-03-23T14:53:20-04:00
; #@! TF.GenerationSoftware,Kicad,Pcbnew,(5.1.9)-1
; #@! TF.FileFunction,Plated,1,2,PTH
FMAT,2
INCH
T1C0.0157
T2C0.0315
T3C0.0354
T4C0.0394
T5C0.0591
%
G90
G05
T1
X2.137Y-5.3224
X2.178Y-5.3217
X2.2597Y-5.3271
X2.3011Y-5.2859
X2.3011Y-5.3263
X2.3337Y-5.2638
X2.373Y-5.2639
X2.4185Y-5.6256
X2.4288Y-5.3512
X2.4492Y-5.8323
X2.5808Y-5.6056
X2.6929Y-2.8346
X2.6929Y-3.8976
X2.7018Y-4.9606
X2.7067Y-4.252
X2.7067Y-4.6063
X2.7165Y-3.5433
X2.7264Y-3.189
X2.7461Y-2.4803
X2.7492Y-2.0933
X2.8033Y-5.4261
X2.8224Y-5.6028
X2.8311Y-5.3982
X2.859Y-5.3704
X2.8868Y-5.3425
X2.9232Y-3.3858
X2.9232Y-4.4094
X2.9799Y-2.3697
X2.9799Y-2.4453
X3.0118Y-4.4555
X3.0161Y-3.4457
X3.0244Y-2.3622
X3.061Y-3.1004
X3.063Y-2.5209
X3.0638Y-3.5457
X3.0638Y-4.5693
X3.0701Y-4.2264
X3.0709Y-4.1339
X3.0756Y-5.6307
X3.1087Y-2.2547
X3.1094Y-3.2795
X3.1094Y-4.3031
X3.1366Y-5.6295
X3.2264Y-2.4421
X3.2272Y-3.4669
X3.2272Y-4.4906
X3.2469Y-5.4421
X3.2469Y-5.6774
X3.3472Y-5.4413
X3.3815Y-2.7252
X3.3898Y-3.5189
X3.3919Y-4.5431
X3.4476Y-5.4421
X3.4543Y-2.5232
X3.4551Y-3.4327
X3.4551Y-3.548
X3.4551Y-4.5717
X3.4571Y-2.7252
X3.4651Y-4.4225
X3.5476Y-5.4425
X3.6248Y-4.139
X3.6413Y-3.1457
X3.6476Y-5.4417
X3.6811Y-2.0768
X3.6811Y-3.1004
X3.6811Y-4.1339
X3.7154Y-3.2181
X3.7169Y-3.1457
X3.739Y-4.2173
X3.7469Y-5.4425
X3.7697Y-3.387
X3.7697Y-4.4106
X3.7839Y-3.6583
X3.7854Y-2.311
X3.7858Y-2.213
X3.7862Y-2.4067
X3.8469Y-5.4429
X3.9469Y-5.4433
X4.0331Y-4.461
X4.0496Y-2.3626
X4.0874Y-3.5457
X4.0874Y-4.5693
X4.0878Y-2.5209
X4.1331Y-3.2795
X4.1331Y-4.3031
X4.1335Y-2.2547
X4.1638Y-5.1465
X4.2508Y-3.4669
X4.2508Y-4.4906
X4.2512Y-2.4421
X4.3969Y-3.7413
X4.4075Y-2.7067
X4.4156Y-4.5409
X4.4787Y-3.548
X4.4787Y-4.5717
X4.4791Y-2.5232
X4.4831Y-2.7067
X4.4839Y-4.4516
X4.4894Y-3.7185
X4.5508Y-5.2531
X4.7047Y-3.1102
X4.7047Y-4.124
X4.7146Y-2.0866
X4.7929Y-2.361
X4.7933Y-3.387
X4.7933Y-4.4106
X4.852Y-5.052
X4.952Y-5.0705
X5.0606Y-3.4382
X5.0657Y-4.461
X5.1106Y-2.5197
X5.111Y-3.5457
X5.111Y-4.5693
X5.1563Y-2.2535
X5.1567Y-3.2795
X5.1567Y-4.3031
X5.274Y-2.4409
X5.2744Y-3.4669
X5.2744Y-4.4906
X5.4392Y-3.5195
X5.4392Y-4.5431
X5.4882Y-2.3701
X5.4976Y-3.4476
X5.5004Y-4.4634
X5.502Y-2.522
X5.5024Y-3.548
X5.5024Y-4.5717
X5.5638Y-2.3701
X5.8059Y-4.8685
T2
X2.1457Y-5.4335
X2.1457Y-5.8272
X2.2441Y-2.126
X2.2441Y-2.2441
X2.2441Y-2.3622
X2.2441Y-2.4803
X2.2441Y-2.5984
X2.2441Y-2.7165
X2.2441Y-2.8346
X2.2441Y-2.9528
X2.2441Y-3.0709
X2.2441Y-3.189
X2.2441Y-3.3071
X2.2441Y-3.4252
X2.2441Y-3.5433
X2.2441Y-3.6614
X2.2441Y-3.7795
X2.2441Y-3.8976
X2.2441Y-4.0157
X2.2441Y-4.1339
X2.2441Y-4.252
X2.2441Y-4.3701
X2.2441Y-4.4882
X2.2441Y-4.6063
X2.2441Y-4.7244
X2.2441Y-4.8425
X2.2441Y-4.9606
X2.2441Y-5.0787
X2.2441Y-5.1969
X2.2638Y-5.4335
X2.2638Y-5.8272
X2.3819Y-5.4335
X2.3819Y-5.8272
X2.5146Y-5.6256
X2.5146Y-5.8224
X2.6378Y-2.126
X2.6378Y-2.2441
X2.6378Y-2.3622
X2.6378Y-2.4803
X2.6378Y-2.5984
X2.6378Y-2.7165
X2.6378Y-2.8346
X2.6378Y-2.9528
X2.6378Y-3.0709
X2.6378Y-3.189
X2.6378Y-3.3071
X2.6378Y-3.4252
X2.6378Y-3.5433
X2.6378Y-3.6614
X2.6378Y-3.7795
X2.6378Y-3.8976
X2.6378Y-4.0157
X2.6378Y-4.1339
X2.6378Y-4.252
X2.6378Y-4.3701
X2.6378Y-4.4882
X2.6378Y-4.6063
X2.6378Y-4.7244
X2.6378Y-4.8425
X2.6378Y-4.9606
X2.6378Y-5.0787
X2.6378Y-5.1969
X2.6469Y-5.5122
X2.6469Y-5.8122
X2.7469Y-5.5122
X2.7469Y-5.8122
X2.8469Y-5.5122
X2.8469Y-5.8122
X2.9469Y-5.5122
X2.9469Y-5.8122
X3.0469Y-5.5122
X3.0469Y-5.8122
X3.1469Y-5.5122
X3.1469Y-5.8122
X3.2469Y-5.5122
X3.2469Y-5.8122
X3.3469Y-5.5122
X3.3469Y-5.8122
X3.4469Y-5.5122
X3.4469Y-5.8122
X3.5469Y-5.5122
X3.5469Y-5.8122
X3.6469Y-5.5122
X3.6469Y-5.8122
X3.7469Y-5.5122
X3.7469Y-5.8122
X3.8469Y-5.5122
X3.8469Y-5.8122
X3.9469Y-5.5122
X3.9469Y-5.8122
T3
X2.9134Y-2.1547
X2.9134Y-2.2547
X2.9134Y-2.4697
X2.9134Y-2.5697
X2.9134Y-2.7846
X2.9134Y-2.8846
X2.9134Y-3.1783
X2.9134Y-3.2783
X2.9134Y-3.4933
X2.9134Y-3.5933
X2.9134Y-3.8083
X2.9134Y-3.9083
X2.9134Y-4.202
X2.9134Y-4.302
X2.9134Y-4.5169
X2.9134Y-4.6169
X2.9134Y-4.8319
X2.9134Y-4.9319
X3.2283Y-2.1547
X3.2283Y-2.2547
X3.2283Y-2.7846
X3.2283Y-2.8846
X3.2283Y-3.1783
X3.2283Y-3.2783
X3.2283Y-3.8083
X3.2283Y-3.9083
X3.2283Y-4.202
X3.2283Y-4.302
X3.2283Y-4.8319
X3.2283Y-4.9319
X3.5433Y-2.1547
X3.5433Y-2.2547
X3.5433Y-2.4697
X3.5433Y-2.5697
X3.5433Y-2.7846
X3.5433Y-2.8846
X3.5433Y-3.1783
X3.5433Y-3.2783
X3.5433Y-3.4933
X3.5433Y-3.5933
X3.5433Y-3.8083
X3.5433Y-3.9083
X3.5433Y-4.202
X3.5433Y-4.302
X3.5433Y-4.5169
X3.5433Y-4.6169
X3.5433Y-4.8319
X3.5433Y-4.9319
X3.937Y-2.1547
X3.937Y-2.2547
X3.937Y-2.4697
X3.937Y-2.5697
X3.937Y-2.7846
X3.937Y-2.8846
X3.937Y-3.1783
X3.937Y-3.2783
X3.937Y-3.4933
X3.937Y-3.5933
X3.937Y-3.8083
X3.937Y-3.9083
X3.937Y-4.202
X3.937Y-4.302
X3.937Y-4.5169
X3.937Y-4.6169
X3.937Y-4.8319
X3.937Y-4.9319
X4.252Y-2.1547
X4.252Y-2.2547
X4.252Y-2.7846
X4.252Y-2.8846
X4.252Y-3.1783
X4.252Y-3.2783
X4.252Y-3.8083
X4.252Y-3.9083
X4.252Y-4.202
X4.252Y-4.302
X4.252Y-4.8319
X4.252Y-4.9319
X4.5669Y-2.1547
X4.5669Y-2.2547
X4.5669Y-2.4697
X4.5669Y-2.5697
X4.5669Y-2.7846
X4.5669Y-2.8846
X4.5669Y-3.1783
X4.5669Y-3.2783
X4.5669Y-3.4933
X4.5669Y-3.5933
X4.5669Y-3.8083
X4.5669Y-3.9083
X4.5669Y-4.202
X4.5669Y-4.302
X4.5669Y-4.5169
X4.5669Y-4.6169
X4.5669Y-4.8319
X4.5669Y-4.9319
X4.9606Y-2.1547
X4.9606Y-2.2547
X4.9606Y-2.4697
X4.9606Y-2.5697
X4.9606Y-2.7846
X4.9606Y-2.8846
X4.9606Y-3.1783
X4.9606Y-3.2783
X4.9606Y-3.4933
X4.9606Y-3.5933
X4.9606Y-3.8083
X4.9606Y-3.9083
X4.9606Y-4.202
X4.9606Y-4.302
X4.9606Y-4.5169
X4.9606Y-4.6169
X4.9606Y-4.8319
X4.9606Y-4.9319
X5.2756Y-2.1547
X5.2756Y-2.2547
X5.2756Y-2.7846
X5.2756Y-2.8846
X5.2756Y-3.1783
X5.2756Y-3.2783
X5.2756Y-3.8083
X5.2756Y-3.9083
X5.2756Y-4.202
X5.2756Y-4.302
X5.2756Y-4.8319
X5.2756Y-4.9319
X5.5906Y-2.1547
X5.5906Y-2.2547
X5.5906Y-2.4697
X5.5906Y-2.5697
X5.5906Y-2.7846
X5.5906Y-2.8846
X5.5906Y-3.1783
X5.5906Y-3.2783
X5.5906Y-3.4933
X5.5906Y-3.5933
X5.5906Y-3.8083
X5.5906Y-3.9083
X5.5906Y-4.202
X5.5906Y-4.302
X5.5906Y-4.5169
X5.5906Y-4.6169
X5.5906Y-4.8319
X5.5906Y-4.9319
T4
X4.252Y-5.148
X4.252Y-5.748
X4.352Y-5.148
X4.352Y-5.748
X4.452Y-5.148
X4.452Y-5.748
X4.552Y-5.148
X4.552Y-5.748
X4.652Y-5.148
X4.652Y-5.748
X4.752Y-5.148
X4.752Y-5.748
X4.852Y-5.148
X4.852Y-5.748
X4.952Y-5.148
X4.952Y-5.748
X5.052Y-5.148
X5.052Y-5.748
X5.152Y-5.148
X5.152Y-5.748
X5.252Y-5.148
X5.252Y-5.748
X5.352Y-5.148
X5.352Y-5.748
X5.452Y-5.148
X5.452Y-5.748
X5.552Y-5.148
X5.552Y-5.748
X5.652Y-5.148
X5.652Y-5.748
X5.7559Y-5.3976
X5.7559Y-5.4976
T5
X3.1398Y-2.3917
X3.1398Y-2.6476
X3.1398Y-3.4154
X3.1398Y-3.6713
X3.1398Y-4.439
X3.1398Y-4.6949
X3.3169Y-2.3917
X3.3169Y-2.6476
X3.3169Y-3.4154
X3.3169Y-3.6713
X3.3169Y-4.439
X3.3169Y-4.6949
X4.1634Y-2.3917
X4.1634Y-2.6476
X4.1634Y-3.4154
X4.1634Y-3.6713
X4.1634Y-4.439
X4.1634Y-4.6949
X4.3406Y-2.3917
X4.3406Y-2.6476
X4.3406Y-3.4154
X4.3406Y-3.6713
X4.3406Y-4.439
X4.3406Y-4.6949
X5.187Y-2.3917
X5.187Y-2.6476
X5.187Y-3.4154
X5.187Y-3.6713
X5.187Y-4.439
X5.187Y-4.6949
X5.3642Y-2.3917
X5.3642Y-2.6476
X5.3642Y-3.4154
X5.3642Y-3.6713
X5.3642Y-4.439
X5.3642Y-4.6949
T0
M30
